<mxfile host="app.diagrams.net" modified="2022-11-01T19:29:53.457Z" agent="5.0 (X11)" etag="pEKQwGDKzNbdb7oJG03C" version="20.5.1" type="github" pages="3">
  <diagram id="4mVcvsqQ2BgTf9ahSfEn" name="Página-1">
    <mxGraphModel dx="2322" dy="3955" grid="1" gridSize="10" guides="1" tooltips="1" connect="1" arrows="1" fold="1" page="1" pageScale="1" pageWidth="900" pageHeight="1600" math="0" shadow="0">
      <root>
        <mxCell id="0" />
        <mxCell id="1" parent="0" />
        <mxCell id="mkwNJGkEmRoMqvlj_Sup-6" value="" style="verticalLabelPosition=bottom;verticalAlign=top;html=1;shape=mxgraph.basic.patternFillRect;fillStyle=diag;step=5;fillStrokeWidth=0.2;fillStrokeColor=#dddddd;fontFamily=Times New Roman;fontSize=31;fillColor=#F8EDE3;" vertex="1" parent="1">
          <mxGeometry x="-630" y="-1840" width="1710" height="1740" as="geometry" />
        </mxCell>
        <mxCell id="mkwNJGkEmRoMqvlj_Sup-7" value="" style="verticalLabelPosition=bottom;verticalAlign=top;html=1;shape=mxgraph.basic.plaque_frame;dx=10;fontFamily=Times New Roman;fontSize=31;fillColor=#2C3639;strokeColor=#2C3639;" vertex="1" parent="1">
          <mxGeometry x="-20" y="-1760" width="320" height="110" as="geometry" />
        </mxCell>
        <mxCell id="mkwNJGkEmRoMqvlj_Sup-10" value="Diego&lt;span&gt;&#39;s Kitchen&lt;br&gt;&lt;/span&gt;" style="text;html=1;align=center;verticalAlign=middle;resizable=0;points=[];autosize=1;strokeColor=none;fillColor=none;fontSize=31;fontFamily=Times New Roman;" vertex="1" parent="1">
          <mxGeometry x="30" y="-1730" width="220" height="50" as="geometry" />
        </mxCell>
        <mxCell id="mkwNJGkEmRoMqvlj_Sup-14" value="Diego" style="swimlane;startSize=50;strokeColor=#2C3639;fontFamily=Times New Roman;fontSize=27;fontColor=#2C3639;fillColor=#FFFFFF;strokeWidth=3;labelPosition=center;verticalLabelPosition=middle;align=center;verticalAlign=middle;textDirection=ltr;" vertex="1" parent="1">
          <mxGeometry x="540" y="-1650" width="200" height="270" as="geometry" />
        </mxCell>
        <mxCell id="mkwNJGkEmRoMqvlj_Sup-11" value="" style="whiteSpace=wrap;html=1;aspect=fixed;strokeColor=#2C3639;fontFamily=Times New Roman;fontSize=31;fillColor=#FFFFFF;direction=south;" vertex="1" parent="1">
          <mxGeometry x="555" y="-1590" width="170" height="170" as="geometry" />
        </mxCell>
        <mxCell id="mkwNJGkEmRoMqvlj_Sup-17" value="" style="whiteSpace=wrap;html=1;aspect=fixed;strokeColor=#2C3639;strokeWidth=3;fontFamily=Times New Roman;fontSize=27;fontColor=#2C3639;fillColor=#EABF9F;" vertex="1" parent="1">
          <mxGeometry x="-93.75" y="-1360" width="400" height="400" as="geometry" />
        </mxCell>
        <mxCell id="mkwNJGkEmRoMqvlj_Sup-22" value="" style="ellipse;shape=doubleEllipse;whiteSpace=wrap;html=1;strokeColor=#2C3639;strokeWidth=3;fontFamily=Times New Roman;fontSize=28;fontColor=#2C3639;fillColor=#FFFFFF;" vertex="1" parent="1">
          <mxGeometry x="-140" y="-1360" width="100" height="60" as="geometry" />
        </mxCell>
        <mxCell id="mkwNJGkEmRoMqvlj_Sup-23" value="" style="ellipse;shape=doubleEllipse;whiteSpace=wrap;html=1;strokeColor=#2C3639;strokeWidth=3;fontFamily=Times New Roman;fontSize=28;fontColor=#2C3639;fillColor=#FFFFFF;" vertex="1" parent="1">
          <mxGeometry x="-140" y="-1340" width="100" height="60" as="geometry" />
        </mxCell>
        <mxCell id="mkwNJGkEmRoMqvlj_Sup-25" value="" style="ellipse;shape=doubleEllipse;whiteSpace=wrap;html=1;strokeColor=#2C3639;strokeWidth=3;fontFamily=Times New Roman;fontSize=28;fontColor=#2C3639;fillColor=#FFFFFF;" vertex="1" parent="1">
          <mxGeometry x="-140" y="-1040" width="100" height="60" as="geometry" />
        </mxCell>
        <mxCell id="mkwNJGkEmRoMqvlj_Sup-26" value="" style="ellipse;shape=doubleEllipse;whiteSpace=wrap;html=1;strokeColor=#2C3639;strokeWidth=3;fontFamily=Times New Roman;fontSize=28;fontColor=#2C3639;fillColor=#FFFFFF;" vertex="1" parent="1">
          <mxGeometry x="-140" y="-1020" width="100" height="60" as="geometry" />
        </mxCell>
        <mxCell id="mkwNJGkEmRoMqvlj_Sup-27" value="" style="ellipse;shape=doubleEllipse;whiteSpace=wrap;html=1;strokeColor=#2C3639;strokeWidth=3;fontFamily=Times New Roman;fontSize=28;fontColor=#2C3639;fillColor=#FFFFFF;" vertex="1" parent="1">
          <mxGeometry x="-140" y="-1210" width="100" height="60" as="geometry" />
        </mxCell>
        <mxCell id="mkwNJGkEmRoMqvlj_Sup-28" value="" style="ellipse;shape=doubleEllipse;whiteSpace=wrap;html=1;strokeColor=#2C3639;strokeWidth=3;fontFamily=Times New Roman;fontSize=28;fontColor=#2C3639;fillColor=#FFFFFF;" vertex="1" parent="1">
          <mxGeometry x="-140" y="-1190" width="100" height="60" as="geometry" />
        </mxCell>
        <mxCell id="mkwNJGkEmRoMqvlj_Sup-31" value="by Diego" style="text;strokeColor=none;fillColor=none;align=left;verticalAlign=middle;spacingLeft=4;spacingRight=4;overflow=hidden;points=[[0,0.5],[1,0.5]];portConstraint=eastwest;rotatable=0;strokeWidth=3;fontFamily=Georgia;fontSize=28;fontColor=#2C3639;" vertex="1" parent="1">
          <mxGeometry x="40" y="-1100" width="130" height="40" as="geometry" />
        </mxCell>
        <mxCell id="mkwNJGkEmRoMqvlj_Sup-32" value="RECETARIO" style="text;strokeColor=none;fillColor=none;align=left;verticalAlign=middle;spacingLeft=4;spacingRight=4;overflow=hidden;points=[[0,0.5],[1,0.5]];portConstraint=eastwest;rotatable=0;strokeWidth=3;fontFamily=Times New Roman;fontSize=28;fontColor=#2C3639;fontStyle=3" vertex="1" parent="1">
          <mxGeometry x="12.5" y="-1280" width="187.5" height="60" as="geometry" />
        </mxCell>
        <mxCell id="cGA15XZdZwQGAFjmj5sp-1" value="nombre: djgdhfh" style="text;strokeColor=none;fillColor=none;align=left;verticalAlign=middle;spacingLeft=4;spacingRight=4;overflow=hidden;points=[[0,0.5],[1,0.5]];portConstraint=eastwest;rotatable=0;strokeWidth=6;fontFamily=Times New Roman;fontSize=28;fontColor=#2C3639;" vertex="1" parent="1">
          <mxGeometry x="780" y="-1600" width="220" height="60" as="geometry" />
        </mxCell>
        <mxCell id="cGA15XZdZwQGAFjmj5sp-2" value="Titulos: afdjfldf" style="text;strokeColor=none;fillColor=none;align=left;verticalAlign=middle;spacingLeft=4;spacingRight=4;overflow=hidden;points=[[0,0.5],[1,0.5]];portConstraint=eastwest;rotatable=0;strokeWidth=6;fontFamily=Times New Roman;fontSize=28;fontColor=#2C3639;" vertex="1" parent="1">
          <mxGeometry x="780" y="-1560" width="200" height="60" as="geometry" />
        </mxCell>
      </root>
    </mxGraphModel>
  </diagram>
  <diagram id="o8l1YdS250juc67S8WTm" name="Página-2">
    <mxGraphModel dx="2322" dy="2355" grid="1" gridSize="10" guides="1" tooltips="1" connect="1" arrows="1" fold="1" page="1" pageScale="1" pageWidth="900" pageHeight="1600" math="0" shadow="0">
      <root>
        <mxCell id="0" />
        <mxCell id="1" parent="0" />
        <mxCell id="NmjFzcb0GZVKvbDkOl7i-1" value="" style="whiteSpace=wrap;html=1;aspect=fixed;strokeColor=#FFFFFF;strokeWidth=6;fontFamily=Times New Roman;fontSize=28;fontColor=#2C3639;fillColor=#EABF9F;" vertex="1" parent="1">
          <mxGeometry x="-230" y="-10" width="1750" height="1750" as="geometry" />
        </mxCell>
        <mxCell id="Wm7Q-vcE916nHrbf0W4v-1" value="" style="swimlane;startSize=0;strokeColor=#2C3639;strokeWidth=6;fontFamily=Times New Roman;fontSize=28;fontColor=#2C3639;fillColor=#EABF9F;" vertex="1" parent="1">
          <mxGeometry x="50" y="110" width="570" height="530" as="geometry" />
        </mxCell>
        <mxCell id="Wm7Q-vcE916nHrbf0W4v-2" value="Comida" style="swimlane;strokeColor=#2C3639;strokeWidth=6;fontFamily=Times New Roman;fontSize=28;fontColor=#2C3639;fillColor=#EABF9F;startSize=50;" vertex="1" parent="Wm7Q-vcE916nHrbf0W4v-1">
          <mxGeometry x="20" y="120" width="200" height="250" as="geometry" />
        </mxCell>
        <mxCell id="Wm7Q-vcE916nHrbf0W4v-3" value="" style="whiteSpace=wrap;html=1;aspect=fixed;strokeColor=#FFFFFF;strokeWidth=6;fontFamily=Times New Roman;fontSize=28;fontColor=#2C3639;fillColor=#FFFFFF;" vertex="1" parent="1">
          <mxGeometry x="100" y="300" width="140" height="140" as="geometry" />
        </mxCell>
        <mxCell id="Wm7Q-vcE916nHrbf0W4v-4" value="ENTRADAS" style="text;strokeColor=none;fillColor=none;align=left;verticalAlign=middle;spacingLeft=4;spacingRight=4;overflow=hidden;points=[[0,0.5],[1,0.5]];portConstraint=eastwest;rotatable=0;strokeWidth=6;fontFamily=Times New Roman;fontSize=28;fontColor=#2C3639;" vertex="1" parent="1">
          <mxGeometry x="60" y="130" width="190" height="50" as="geometry" />
        </mxCell>
        <mxCell id="Wm7Q-vcE916nHrbf0W4v-5" value="Nombre:" style="text;strokeColor=none;fillColor=none;align=left;verticalAlign=middle;spacingLeft=4;spacingRight=4;overflow=hidden;points=[[0,0.5],[1,0.5]];portConstraint=eastwest;rotatable=0;strokeWidth=6;fontFamily=Times New Roman;fontSize=28;fontColor=#2C3639;" vertex="1" parent="1">
          <mxGeometry x="300" y="250" width="140" height="60" as="geometry" />
        </mxCell>
        <mxCell id="Wm7Q-vcE916nHrbf0W4v-6" value="de que esta hecho" style="text;strokeColor=none;fillColor=none;align=left;verticalAlign=middle;spacingLeft=4;spacingRight=4;overflow=hidden;points=[[0,0.5],[1,0.5]];portConstraint=eastwest;rotatable=0;strokeWidth=6;fontFamily=Times New Roman;fontSize=28;fontColor=#2C3639;" vertex="1" parent="1">
          <mxGeometry x="290" y="330" width="260" height="80" as="geometry" />
        </mxCell>
        <mxCell id="Wm7Q-vcE916nHrbf0W4v-8" value="" style="swimlane;startSize=0;strokeColor=#2C3639;strokeWidth=6;fontFamily=Times New Roman;fontSize=28;fontColor=#2C3639;fillColor=#FFFFFF;" vertex="1" parent="1">
          <mxGeometry x="720" y="110" width="600" height="530" as="geometry" />
        </mxCell>
        <mxCell id="Wm7Q-vcE916nHrbf0W4v-10" value="Comida" style="swimlane;strokeColor=#2C3639;strokeWidth=6;fontFamily=Times New Roman;fontSize=28;fontColor=#2C3639;fillColor=#EABF9F;startSize=60;" vertex="1" parent="Wm7Q-vcE916nHrbf0W4v-8">
          <mxGeometry x="30" y="130" width="200" height="270" as="geometry" />
        </mxCell>
        <mxCell id="Wm7Q-vcE916nHrbf0W4v-14" value="" style="whiteSpace=wrap;html=1;aspect=fixed;strokeColor=#FFFFFF;strokeWidth=6;fontFamily=Times New Roman;fontSize=28;fontColor=#2C3639;fillColor=#FFFFFF;" vertex="1" parent="Wm7Q-vcE916nHrbf0W4v-10">
          <mxGeometry x="30" y="80" width="140" height="140" as="geometry" />
        </mxCell>
        <mxCell id="Wm7Q-vcE916nHrbf0W4v-15" value="" style="whiteSpace=wrap;html=1;aspect=fixed;strokeColor=#FFFFFF;strokeWidth=6;fontFamily=Times New Roman;fontSize=28;fontColor=#2C3639;fillColor=#FFFFFF;" vertex="1" parent="1">
          <mxGeometry x="1580" y="600" width="140" height="140" as="geometry" />
        </mxCell>
        <mxCell id="Wm7Q-vcE916nHrbf0W4v-17" value="Nombre:" style="text;strokeColor=none;fillColor=none;align=left;verticalAlign=middle;spacingLeft=4;spacingRight=4;overflow=hidden;points=[[0,0.5],[1,0.5]];portConstraint=eastwest;rotatable=0;strokeWidth=6;fontFamily=Times New Roman;fontSize=28;fontColor=#2C3639;" vertex="1" parent="1">
          <mxGeometry x="1000" y="240" width="140" height="60" as="geometry" />
        </mxCell>
        <mxCell id="Wm7Q-vcE916nHrbf0W4v-18" value="de que esta hecho" style="text;strokeColor=none;fillColor=none;align=left;verticalAlign=middle;spacingLeft=4;spacingRight=4;overflow=hidden;points=[[0,0.5],[1,0.5]];portConstraint=eastwest;rotatable=0;strokeWidth=6;fontFamily=Times New Roman;fontSize=28;fontColor=#2C3639;" vertex="1" parent="1">
          <mxGeometry x="1000" y="290" width="260" height="80" as="geometry" />
        </mxCell>
        <mxCell id="Wm7Q-vcE916nHrbf0W4v-19" value="PLATO PRINCIPAL" style="text;strokeColor=none;fillColor=none;align=left;verticalAlign=middle;spacingLeft=4;spacingRight=4;overflow=hidden;points=[[0,0.5],[1,0.5]];portConstraint=eastwest;rotatable=0;strokeWidth=6;fontFamily=Times New Roman;fontSize=28;fontColor=#2C3639;" vertex="1" parent="1">
          <mxGeometry x="760" y="125" width="260" height="65" as="geometry" />
        </mxCell>
        <mxCell id="Wm7Q-vcE916nHrbf0W4v-20" value="" style="shape=dataStorage;whiteSpace=wrap;html=1;fixedSize=1;strokeColor=#2C3639;strokeWidth=6;fontFamily=Times New Roman;fontSize=28;fontColor=#2C3639;fillColor=#EABF9F;" vertex="1" parent="1">
          <mxGeometry x="590" y="110" width="130" height="80" as="geometry" />
        </mxCell>
        <mxCell id="Wm7Q-vcE916nHrbf0W4v-21" value="" style="shape=dataStorage;whiteSpace=wrap;html=1;fixedSize=1;strokeColor=#2C3639;strokeWidth=6;fontFamily=Times New Roman;fontSize=28;fontColor=#2C3639;fillColor=#EABF9F;" vertex="1" parent="1">
          <mxGeometry x="590" y="200" width="130" height="80" as="geometry" />
        </mxCell>
        <mxCell id="Wm7Q-vcE916nHrbf0W4v-22" value="" style="shape=dataStorage;whiteSpace=wrap;html=1;fixedSize=1;strokeColor=#2C3639;strokeWidth=6;fontFamily=Times New Roman;fontSize=28;fontColor=#2C3639;fillColor=#EABF9F;" vertex="1" parent="1">
          <mxGeometry x="590" y="290" width="130" height="80" as="geometry" />
        </mxCell>
        <mxCell id="Wm7Q-vcE916nHrbf0W4v-23" value="" style="shape=dataStorage;whiteSpace=wrap;html=1;fixedSize=1;strokeColor=#2C3639;strokeWidth=6;fontFamily=Times New Roman;fontSize=28;fontColor=#2C3639;fillColor=#EABF9F;" vertex="1" parent="1">
          <mxGeometry x="590" y="380" width="130" height="80" as="geometry" />
        </mxCell>
        <mxCell id="Wm7Q-vcE916nHrbf0W4v-24" value="" style="shape=dataStorage;whiteSpace=wrap;html=1;fixedSize=1;strokeColor=#2C3639;strokeWidth=6;fontFamily=Times New Roman;fontSize=28;fontColor=#2C3639;fillColor=#EABF9F;" vertex="1" parent="1">
          <mxGeometry x="590" y="470" width="130" height="80" as="geometry" />
        </mxCell>
        <mxCell id="Wm7Q-vcE916nHrbf0W4v-25" value="" style="shape=dataStorage;whiteSpace=wrap;html=1;fixedSize=1;strokeColor=#2C3639;strokeWidth=6;fontFamily=Times New Roman;fontSize=28;fontColor=#2C3639;fillColor=#EABF9F;" vertex="1" parent="1">
          <mxGeometry x="590" y="560" width="130" height="80" as="geometry" />
        </mxCell>
        <mxCell id="Wm7Q-vcE916nHrbf0W4v-46" value="" style="html=1;shadow=0;dashed=0;shape=mxgraph.bootstrap.rrect;rSize=5;strokeColor=#DEE2E6;html=1;whiteSpace=wrap;fillColor=#ffffff;fontColor=#0085FC;strokeWidth=6;fontFamily=Times New Roman;fontSize=15;" vertex="1" parent="1">
          <mxGeometry x="1120" y="590" width="150" height="30" as="geometry" />
        </mxCell>
        <mxCell id="Wm7Q-vcE916nHrbf0W4v-47" value="&lt;&lt;" style="strokeColor=inherit;fillColor=inherit;gradientColor=inherit;fontColor=inherit;html=1;shadow=0;dashed=0;shape=mxgraph.bootstrap.leftButton;rSize=5;perimeter=none;whiteSpace=wrap;resizeHeight=1;fontSize=14;strokeWidth=6;fontFamily=Times New Roman;" vertex="1" parent="Wm7Q-vcE916nHrbf0W4v-46">
          <mxGeometry width="30" height="30" relative="1" as="geometry" />
        </mxCell>
        <mxCell id="Wm7Q-vcE916nHrbf0W4v-48" value="1" style="strokeColor=inherit;fillColor=inherit;gradientColor=inherit;fontColor=inherit;html=1;shadow=0;dashed=0;perimeter=none;whiteSpace=wrap;resizeHeight=1;fontSize=14;strokeWidth=6;fontFamily=Times New Roman;" vertex="1" parent="Wm7Q-vcE916nHrbf0W4v-46">
          <mxGeometry width="30" height="30" relative="1" as="geometry">
            <mxPoint x="30" as="offset" />
          </mxGeometry>
        </mxCell>
        <mxCell id="Wm7Q-vcE916nHrbf0W4v-49" value="2" style="strokeColor=inherit;fillColor=inherit;gradientColor=inherit;fontColor=inherit;html=1;shadow=0;dashed=0;perimeter=none;whiteSpace=wrap;resizeHeight=1;fontSize=14;strokeWidth=6;fontFamily=Times New Roman;" vertex="1" parent="Wm7Q-vcE916nHrbf0W4v-46">
          <mxGeometry width="30" height="30" relative="1" as="geometry">
            <mxPoint x="60" as="offset" />
          </mxGeometry>
        </mxCell>
        <mxCell id="Wm7Q-vcE916nHrbf0W4v-50" value="3" style="strokeColor=inherit;fillColor=inherit;gradientColor=inherit;fontColor=inherit;html=1;shadow=0;dashed=0;perimeter=none;whiteSpace=wrap;resizeHeight=1;fontSize=14;strokeWidth=6;fontFamily=Times New Roman;" vertex="1" parent="Wm7Q-vcE916nHrbf0W4v-46">
          <mxGeometry width="30" height="30" relative="1" as="geometry">
            <mxPoint x="90" as="offset" />
          </mxGeometry>
        </mxCell>
        <mxCell id="Wm7Q-vcE916nHrbf0W4v-51" value="&gt;&gt;" style="strokeColor=inherit;fillColor=inherit;gradientColor=inherit;fontColor=inherit;html=1;shadow=0;dashed=0;shape=mxgraph.bootstrap.rightButton;rSize=5;perimeter=none;whiteSpace=wrap;resizeHeight=1;fontSize=14;strokeWidth=6;fontFamily=Times New Roman;" vertex="1" parent="Wm7Q-vcE916nHrbf0W4v-46">
          <mxGeometry x="1" width="30" height="30" relative="1" as="geometry">
            <mxPoint x="-30" as="offset" />
          </mxGeometry>
        </mxCell>
      </root>
    </mxGraphModel>
  </diagram>
  <diagram id="DqgwKcqi-VQ9oo42aj00" name="Página-3">
    <mxGraphModel dx="2322" dy="755" grid="1" gridSize="10" guides="1" tooltips="1" connect="1" arrows="1" fold="1" page="1" pageScale="1" pageWidth="900" pageHeight="1600" math="0" shadow="0">
      <root>
        <mxCell id="0" />
        <mxCell id="1" parent="0" />
        <mxCell id="f4PPLp5XfglPBYUDGBsM-1" value="" style="whiteSpace=wrap;html=1;aspect=fixed;strokeColor=#B7CADB;strokeWidth=6;fontFamily=Times New Roman;fontSize=15;fontColor=#2C3639;fillColor=#B7CADB;" vertex="1" parent="1">
          <mxGeometry x="-50" y="30" width="1270" height="1270" as="geometry" />
        </mxCell>
        <mxCell id="ouTuPFPXwQyR8JOP18c8-1" value="Entrada" style="text;strokeColor=none;fillColor=none;align=left;verticalAlign=middle;spacingLeft=4;spacingRight=4;overflow=hidden;points=[[0,0.5],[1,0.5]];portConstraint=eastwest;rotatable=0;strokeWidth=6;fontFamily=Times New Roman;fontSize=80;fontColor=#2C3639;" vertex="1" parent="1">
          <mxGeometry x="60" y="90" width="290" height="90" as="geometry" />
        </mxCell>
        <mxCell id="ouTuPFPXwQyR8JOP18c8-4" value="" style="swimlane;startSize=0;strokeColor=#2C3639;strokeWidth=6;fontFamily=Times New Roman;fontSize=30;fontColor=#2C3639;fillColor=#B7CADB;" vertex="1" parent="1">
          <mxGeometry x="20" y="300" width="200" height="230" as="geometry" />
        </mxCell>
        <mxCell id="ouTuPFPXwQyR8JOP18c8-7" value="" style="whiteSpace=wrap;html=1;aspect=fixed;strokeColor=#FFFFFF;strokeWidth=6;fontFamily=Times New Roman;fontSize=30;fontColor=#2C3639;fillColor=#FFFFFF;" vertex="1" parent="ouTuPFPXwQyR8JOP18c8-4">
          <mxGeometry x="35" y="30" width="130" height="130" as="geometry" />
        </mxCell>
        <mxCell id="ouTuPFPXwQyR8JOP18c8-8" value="Nombre del plato" style="text;strokeColor=none;fillColor=none;align=left;verticalAlign=middle;spacingLeft=4;spacingRight=4;overflow=hidden;points=[[0,0.5],[1,0.5]];portConstraint=eastwest;rotatable=0;strokeWidth=6;fontFamily=Times New Roman;fontSize=51;fontColor=#2C3639;" vertex="1" parent="1">
          <mxGeometry x="400" y="280" width="430" height="120" as="geometry" />
        </mxCell>
        <mxCell id="ouTuPFPXwQyR8JOP18c8-9" value="Ingredientes:" style="text;strokeColor=none;fillColor=none;align=left;verticalAlign=middle;spacingLeft=4;spacingRight=4;overflow=hidden;points=[[0,0.5],[1,0.5]];portConstraint=eastwest;rotatable=0;strokeWidth=6;fontFamily=Times New Roman;fontSize=30;fontColor=#2C3639;" vertex="1" parent="1">
          <mxGeometry x="250" y="530" width="180" height="80" as="geometry" />
        </mxCell>
        <mxCell id="ouTuPFPXwQyR8JOP18c8-10" value=". jffg&#xa;.difg&#xa;.djgfjh&#xa;" style="text;strokeColor=none;fillColor=none;align=left;verticalAlign=middle;spacingLeft=4;spacingRight=4;overflow=hidden;points=[[0,0.5],[1,0.5]];portConstraint=eastwest;rotatable=0;strokeWidth=6;fontFamily=Times New Roman;fontSize=30;fontColor=#2C3639;" vertex="1" parent="1">
          <mxGeometry x="260" y="620" width="210" height="130" as="geometry" />
        </mxCell>
        <mxCell id="ouTuPFPXwQyR8JOP18c8-11" value="PROCESO" style="text;strokeColor=none;fillColor=none;align=left;verticalAlign=middle;spacingLeft=4;spacingRight=4;overflow=hidden;points=[[0,0.5],[1,0.5]];portConstraint=eastwest;rotatable=0;strokeWidth=6;fontFamily=Times New Roman;fontSize=47;fontColor=#2C3639;" vertex="1" parent="1">
          <mxGeometry x="-30" y="860" width="250" height="80" as="geometry" />
        </mxCell>
        <mxCell id="ouTuPFPXwQyR8JOP18c8-12" value="sdkjngfghhmeypmkf lñrtjoyijh styotijogy&#xa;&#xa;sordijotyijprtyjkrfgnh emhsdñhgyj&#xa;kghdtpyojṕj zdrlkgdhjdfgh&#xa;&#xa;fhgnoigkfhngfdsfg.gyhgjh&#xa;" style="text;strokeColor=none;fillColor=none;align=left;verticalAlign=middle;spacingLeft=4;spacingRight=4;overflow=hidden;points=[[0,0.5],[1,0.5]];portConstraint=eastwest;rotatable=0;strokeWidth=6;fontFamily=Times New Roman;fontSize=29;fontColor=#2C3639;" vertex="1" parent="1">
          <mxGeometry x="10" y="980" width="590" height="260" as="geometry" />
        </mxCell>
      </root>
    </mxGraphModel>
  </diagram>
</mxfile>
